<?xml version="1.0" encoding="UTF-8"?>
<svg width="106px" height="31px" viewBox="0 0 106 31" version="1.1" xmlns="http://www.w3.org/2000/svg" xmlns:xlink="http://www.w3.org/1999/xlink">
    <!-- Generator: Sketch 43.1 (39012) - http://www.bohemiancoding.com/sketch -->
    <title>Group 24</title>
    <desc>Created with Sketch.</desc>
    <defs></defs>
    <g id="Page-1" stroke="none" stroke-width="1" fill="none" fill-rule="evenodd">
        <g id="AAP-1" transform="translate(-24.000000, -25.000000)">
            <g id="Group-24" transform="translate(24.000000, 25.000000)">
                <path d="M45.1723019,11.568 L45.1723019,6.96 L49.2043019,6.96 L49.2043019,0.288 L54.8683019,0.288 L54.8683019,6.96 L60.6283019,6.96 L60.6283019,11.568 L54.8683019,11.568 L54.8683019,22.272 C54.8683019,23.2960051 55.0523,24.1439966 55.4203019,24.816 C55.7883037,25.4880034 56.6122955,25.824 57.8923019,25.824 C58.2763038,25.824 58.6922996,25.7840004 59.1403019,25.704 C59.5883041,25.6239996 59.9883001,25.5040008 60.3403019,25.344 L60.5323019,29.856 C60.0202993,30.048001 59.4123054,30.1999994 58.7083019,30.312 C58.0042984,30.4240006 57.3323051,30.48 56.6923019,30.48 C55.1562942,30.48 53.9083067,30.2640022 52.9483019,29.832 C51.9882971,29.3999978 51.2283047,28.8080038 50.6683019,28.056 C50.1082991,27.3039962 49.7243029,26.4400049 49.5163019,25.464 C49.3083008,24.4879951 49.2043019,23.4400056 49.2043019,22.32 L49.2043019,11.568 L45.1723019,11.568 Z M61.3483019,6.96 L67.6363019,6.96 L73.6843019,23.76 L73.7803019,23.76 L79.8763019,6.96 L85.9723019,6.96 L76.8043019,30 L70.6603019,30 L61.3483019,6.96 Z M102.052302,13.104 C101.540299,12.4319966 100.836306,11.8480025 99.9403019,11.352 C99.0442974,10.8559975 98.0683072,10.608 97.0123019,10.608 C96.0842972,10.608 95.2363057,10.7999981 94.4683019,11.184 C93.700298,11.5680019 93.3163019,12.2079955 93.3163019,13.104 C93.3163019,14.0000045 93.7402976,14.6319982 94.5883019,15 C95.4363061,15.3680018 96.6762937,15.7439981 98.3083019,16.128 C99.1723062,16.320001 100.044297,16.5759984 100.924302,16.896 C101.804306,17.2160016 102.604298,17.6399974 103.324302,18.168 C104.044305,18.6960026 104.6283,19.3519961 105.076302,20.136 C105.524304,20.9200039 105.748302,21.8719944 105.748302,22.992 C105.748302,24.400007 105.484305,25.5919951 104.956302,26.568 C104.428299,27.5440049 103.724306,28.335997 102.844302,28.944 C101.964297,29.552003 100.940308,29.9919986 99.7723019,30.264 C98.604296,30.5360014 97.3963081,30.672 96.1483019,30.672 C94.3562929,30.672 92.6123104,30.3440033 90.9163019,29.688 C89.2202934,29.0319967 87.8123075,28.0960061 86.6923019,26.88 L90.4843019,23.328 C91.1243051,24.1600042 91.9562968,24.8479973 92.9803019,25.392 C94.004307,25.9360027 95.1402956,26.208 96.3883019,26.208 C96.804304,26.208 97.2282997,26.1600005 97.6603019,26.064 C98.092304,25.9679995 98.4923,25.816001 98.8603019,25.608 C99.2283037,25.399999 99.5243008,25.1200018 99.7483019,24.768 C99.972303,24.4159982 100.084302,23.9840026 100.084302,23.472 C100.084302,22.5119952 99.6443063,21.8240021 98.7643019,21.408 C97.8842975,20.9919979 96.5643107,20.5760021 94.8043019,20.16 C93.9402976,19.967999 93.100306,19.7200015 92.2843019,19.416 C91.4682978,19.1119985 90.7403051,18.7120025 90.1003019,18.216 C89.4602987,17.7199975 88.9483038,17.1040037 88.5643019,16.368 C88.1803,15.6319963 87.9883019,14.7200054 87.9883019,13.632 C87.9883019,12.3519936 88.2522992,11.2480046 88.7803019,10.32 C89.3083045,9.39199536 90.0042976,8.63200296 90.8683019,8.04 C91.7323062,7.44799704 92.7082964,7.00800144 93.7963019,6.72 C94.8843073,6.43199856 96.0042961,6.288 97.1563019,6.288 C98.8203102,6.288 100.444294,6.57599712 102.028302,7.152 C103.61231,7.72800288 104.868297,8.60799408 105.796302,9.792 L102.052302,13.104 Z" id="tvs" fill="#2F323A"></path>
                <path d="M3.75,4.6875 L3.75,10 L0,10 L0,4.6875 C0,3.38541016 0.468745313,2.27865039 1.40625,1.3671875 C2.34375469,0.455724609 3.46353516,0 4.765625,0 L10,0 L10,3.75 L4.6875,3.75 C4.06249687,3.75 3.75,4.06249688 3.75,4.6875 Z M27.8125,0 C29.1145898,0 30.2213496,0.455724609 31.1328125,1.3671875 C32.0442754,2.27865039 32.5,3.38541016 32.5,4.6875 L32.5,10 L28.75,10 L28.75,4.6875 C28.75,4.06249688 28.4114617,3.75 27.734375,3.75 L22.5,3.75 L22.5,0 L27.8125,0 Z M28.75,25.234375 L28.75,20 L32.5,20 L32.5,25.234375 C32.5,26.5364648 32.0442754,27.6562453 31.1328125,28.59375 C30.2213496,29.5312547 29.1145898,30 27.8125,30 L22.5,30 L22.5,26.171875 L27.8125,26.171875 C28.4375031,26.171875 28.75,25.8593781 28.75,25.234375 Z M4.6875,26.171875 L10,26.171875 L10,30 L4.765625,30 C3.46353516,30 2.34375469,29.5312547 1.40625,28.59375 C0.468745313,27.6562453 0,26.5364648 0,25.234375 L0,20 L3.75,20 L3.75,25.234375 C3.75,25.8593781 4.06249687,26.171875 4.6875,26.171875 Z" id="ion-qr-scanner---Ionicons" fill="#4A9DE2"></path>
            </g>
        </g>
    </g>
</svg>